<?xml version="1.0" encoding="utf-8"?>
<!-- Generator: Adobe Illustrator 16.0.0, SVG Export Plug-In . SVG Version: 6.00 Build 0)  -->
<!DOCTYPE svg PUBLIC "-//W3C//DTD SVG 1.1//EN" "http://www.w3.org/Graphics/SVG/1.1/DTD/svg11.dtd">
<svg version="1.1" id="Cookie_Cutter_STANDARD" xmlns="http://www.w3.org/2000/svg" xmlns:xlink="http://www.w3.org/1999/xlink"
	 x="0px" y="0px" width="1025px" height="262px" viewBox="0 118.5 1025 262" enable-background="new 0 118.5 1025 262"
	 xml:space="preserve">
<g>
	<g>
		<path fill="#3D3D36" d="M348.158,192.087c30.75,0,47.833,18.108,47.833,56.717c0,38.608-17.083,56.717-47.833,56.717
			c-11.958,0-22.208-3.759-27.675-10.25v41.683c0,7.175-5.809,12.642-12.642,12.642c-7.175,0-12.642-5.809-12.642-12.642V206.438
			c0-7.175,5.808-12.642,12.642-12.642c7.175,0,12.642,5.808,12.642,12.642C323.9,200.288,334.833,192.087,348.158,192.087z
			 M344.742,213.954c-16.4,0-25.283,11.958-25.283,35.192c0,23.233,8.883,34.85,25.283,34.85s25.283-11.959,25.283-34.85
			C370.025,225.571,361.483,213.954,344.742,213.954z"/>
		<path fill="#3D3D36" d="M461.25,192.087c39.975,0,47.15,30.75,47.15,46.809c0,8.883,0,18.792-14.351,18.792h-58.425
			c0,17.084,11.958,24.941,27.675,24.941c10.25,0,17.767-3.416,23.233-7.175c2.733-1.708,4.441-2.733,7.517-2.733
			c6.15,0,10.934,4.783,10.934,10.934c0,3.758-2.05,6.833-4.1,8.883c-4.101,3.759-16.4,12.984-37.926,12.984
			c-32.458,0-52.958-17.426-52.958-57.059C410,212.587,429.133,192.087,461.25,192.087z M436.309,236.846h46.809
			c0-11.617-6.492-22.892-21.867-22.892C447.583,213.954,437.675,221.812,436.309,236.846z"/>
		<path fill="#3D3D36" d="M551.45,207.462c4.441-9.225,15.717-15.033,25.625-15.033c6.491,0,11.958,5.467,11.958,11.958
			c0,6.491-5.467,11.958-11.958,11.958c-16.4,0-25.625,10.25-25.625,26.309v49.199c0,7.176-5.809,12.643-12.642,12.643
			c-7.176,0-12.642-5.809-12.642-12.643v-85.416c0-7.175,5.808-12.642,12.642-12.642c7.175,0,12.642,5.808,12.642,12.642V207.462z"
			/>
		<path fill="#3D3D36" d="M671.717,299.371l-35.191-47.15l-7.517,5.809v33.824c0,7.176-5.809,12.301-12.642,12.301
			c-7.176,0-12.643-5.125-12.643-12.301V146.987c0-7.175,5.467-12.3,12.643-12.3c7.175,0,12.642,5.125,12.642,12.3v83.367
			l42.708-33.483c3.075-2.392,5.467-3.075,8.2-3.075c6.833,0,12.3,5.467,12.3,12.3c0,3.417-1.708,7.175-4.783,9.567l-30.75,23.575
			l34.85,45.442c2.05,2.732,2.733,5.125,2.733,7.516c0,6.834-5.467,12.301-12.3,12.301
			C677.184,304.496,673.767,302.445,671.717,299.371z"/>
		<path fill="#3D3D36" d="M808.725,249.146c0,38.608-18.791,56.716-50.566,56.716c-28.7,0-48.858-15.716-48.858-47.149V147.329
			c0-7.175,5.809-12.642,12.642-12.642c7.175,0,12.642,5.808,12.642,12.642v54.325c4.783-4.783,14.692-9.567,25.967-9.567
			C790.616,192.087,808.725,210.538,808.725,249.146z M734.925,258.371c0,16.4,9.567,25.625,23.233,25.625
			c16.4,0,25.283-11.959,25.283-34.85c0-23.233-9.225-35.192-25.283-35.192c-14.008,0-23.233,11.958-23.233,11.958V258.371z"/>
		<path fill="#3D3D36" d="M874.325,305.521c-31.775,0-51.592-18.109-51.592-56.717c0-38.608,19.816-56.717,51.592-56.717
			c31.774,0,51.592,18.108,51.592,57.059C925.917,287.412,906.1,305.521,874.325,305.521z M874.325,213.954
			c-17.084,0-25.967,11.958-25.967,35.192c0,23.233,8.883,34.85,25.967,34.85c17.083,0,25.967-11.959,25.967-34.85
			C900.292,225.571,891.066,213.954,874.325,213.954z"/>
		<path fill="#3D3D36" d="M955.983,299.371c-2.392,3.416-6.491,5.125-10.25,5.125c-7.175,0-12.642-5.809-12.642-12.643
			c0-3.416,1.024-5.808,2.733-7.857l28.7-35.875l-27.676-33.825c-2.05-2.733-2.733-5.125-2.733-7.858
			c0-7.175,5.809-12.642,12.642-12.642c4.101,0,7.858,2.05,10.25,5.125l22.209,30.408l22.208-30.408
			c2.392-3.075,6.15-5.125,10.25-5.125c7.175,0,12.642,5.808,12.642,12.642c0,2.733-0.684,5.125-2.733,7.858l-27.675,33.825
			l28.7,35.875c1.366,2.05,2.733,4.1,2.733,7.857c0,7.176-5.809,12.643-12.642,12.643c-3.417,0-7.858-1.709-10.25-5.125
			c-7.175-10.25-23.233-32.459-23.233-32.459S963.158,289.463,955.983,299.371z"/>
	</g>
	<g>
		<path fill="#00ADEE" d="M125.733,124.438C56.375,124.438,0,180.812,0,250.171s56.375,125.733,125.733,125.733
			s125.733-56.375,125.733-125.733S195.092,124.438,125.733,124.438z M124.708,165.779c0.683-0.342,1.367-0.342,2.05,0
			c7.858,3.758,14.692,9.566,19.133,18.45c5.809,11.617,6.833,25.967,3.758,43.05c-2.733,13.325-8.2,27.675-16.058,43.05
			c-2.392,0-5.125-0.342-7.517-0.342c-2.733,0-5.125,0-7.517,0.342c-10.933-20.842-26.308-58.767-12.642-86.441
			C110.017,175.004,116.508,169.538,124.708,165.779z M91.225,262.812c-11.958-16.059-24.258-36.9-20.5-58.083
			c3.417-19.475,20.158-31.433,38.608-36.216c0.341,0,0.683,0.683,0.341,1.025c-4.1,3.417-7.858,7.858-10.591,13.325
			c-6.492,12.642-7.858,28.358-4.442,46.467c2.733,12.983,7.858,26.991,15.375,41.342c-3.758,0.342-7.517,1.024-11.275,1.708
			C96.35,269.305,93.617,266.229,91.225,262.812z M143.158,282.629c-0.683,2.051-2.733,13.667-7.175,22.551
			c0,0.342,0,0.683,0.342,0.683h1.367c0.341,0,1.025,0.342,1.025,1.025l0.683,19.475c0,3.759-3.075,6.492-6.492,6.492h-6.833l0,0
			h-6.833c-3.758,0-6.492-3.075-6.492-6.492l0.684-19.475c0-0.342,0.341-1.025,1.025-1.025h1.367c0.341,0,0.341-0.341,0.341-0.683
			c-4.441-8.884-6.833-20.842-7.175-22.551c-1.367-1.366-2.392-2.392-3.758-3.758c6.833-1.025,14.008-1.709,21.183-1.709
			c7.175,0,14.35,0.684,21.184,1.709C145.55,280.237,144.184,281.263,143.158,282.629z M159.9,262.812
			c-2.392,3.075-4.783,6.492-7.517,9.566c-3.758-0.684-7.517-1.366-11.275-1.708c7.517-14.351,12.642-28.017,15.375-41
			c3.758-18.108,2.392-33.825-4.1-46.467c-3.075-5.808-6.833-10.25-10.933-14.008c-0.342-0.342,0-1.025,0.341-1.025
			c18.45,4.441,35.534,16.742,38.95,36.217C184.158,225.913,171.858,246.754,159.9,262.812z"/>
		<path fill="#30A8E1" d="M125.733,292.537c-1.367,0-2.733,0-2.733,0c-1.367,0-3.075-0.342-5.467-2.391
			c-2.733-2.051-1.708-1.025-2.733-2.051c1.367,3.758,2.392,9.908,6.492,17.426c0,0.341,0.342,0.341,0.684,0.341h3.758l0,0h3.758
			c0.342,0,0.342,0,0.683-0.341c4.1-7.518,5.467-13.668,6.492-17.426c-1.025,1.025,0,0-2.733,2.051
			c-2.392,2.049-4.1,2.391-5.467,2.391C128.467,292.537,127.1,292.537,125.733,292.537L125.733,292.537z"/>
	</g>
</g>
</svg>
